<svg width="31" height="31" viewBox="0 0 31 31" xmlns="http://www.w3.org/2000/svg"><title>menu</title><path d="M28.903 0H2.047C.9 0 0 .9 0 2.047c0 1.148.9 2.046 2.047 2.046h26.906C30.1 4.093 31 3.195 31 2.047 30.95.9 30.052 0 28.903 0zm0 26.907H2.047C.9 26.907 0 27.805 0 28.953 0 30.1.9 31 2.047 31h26.906C30.1 31 31 30.1 31 28.953c-.05-1.148-.948-2.046-2.097-2.046zm0-13.48H2.047C.9 13.428 0 14.328 0 15.476c0 1.148.9 2.047 2.047 2.047h26.906c1.148 0 2.047-.9 2.047-2.047-.05-1.148-.948-2.047-2.097-2.047z" fill="#000" fill-rule="evenodd"/></svg>